<?xml version="1.0" encoding="utf-8"?>
<!DOCTYPE svg PUBLIC "-//W3C//DTD SVG 20010904//EN" "http://www.w3.org/TR/2001/REC-SVG-20010904/DTD/svg10.dtd">
<svg version="1.0" xmlns="http://www.w3.org/2000/svg" width="29px" height="27px" viewBox="0 0 512 512" preserveAspectRatio="xMidYMid meet">
 <g fill="#000000">
  <path d="M194.3 476 c-7.9 -2.6 -16.1 -9.9 -20 -17.8 -2.4 -4.9 -2.8 -6.9 -2.8 -14.2 0 -7.2 0.4 -9.4 2.8 -14.5 7.6 -16.3 26.3 -23.7 43.4 -17.3 8 2.9 16.2 11.2 19.2 19.3 3.2 8.3 2.6 19.7 -1.3 27.3 -7.8 15.3 -25 22.5 -41.3 17.2z"/>
  <path d="M384.7 477 c-9.4 -2.4 -17.6 -9 -22.4 -18.2 -2.5 -4.7 -2.8 -6.4 -2.8 -14.8 0 -8.4 0.3 -10.2 2.8 -15.2 3.5 -7.2 11 -14 18.5 -16.8 4.5 -1.7 7.4 -2.1 13.7 -1.8 13.3 0.5 22.9 6.8 28.7 18.6 3 6 3.3 7.6 3.3 15.2 0 6.6 -0.5 9.6 -2.2 13.2 -3 6.6 -10.6 14.3 -17 17.4 -6.1 2.8 -16.4 3.9 -22.6 2.4z"/>
  <path d="M168.5 367.8 c-1.4 -4.6 -23.4 -73.8 -48.8 -153.8 l-46.3 -145.5 -36.7 -0.3 -36.7 -0.2 0 -17 0 -17 47.3 0 47.4 0 49.4 153.3 49.4 153.2 106.2 0.3 106.1 0.2 2 -6.7 c1.1 -3.8 14.5 -49.1 29.7 -100.7 15.2 -51.7 27.9 -94.5 28.2 -95.3 0.4 -1.1 -25 -1.3 -150.3 -1.5 l-150.8 -0.3 -5.2 -16.5 c-2.9 -9.1 -5.3 -16.8 -5.3 -17.2 -0.1 -0.5 80.5 -0.8 178.9 -0.8 98.5 0 179 0.3 179 0.8 0 0.4 -18.5 62 -41.2 136.9 l-41.2 136.3 -129.3 0 -129.2 0 -2.6 -8.2z"/>
 </g>
</svg>