<?xml version="1.0" encoding="utf-8"?>
<!DOCTYPE svg PUBLIC "-//W3C//DTD SVG 20010904//EN" "http://www.w3.org/TR/2001/REC-SVG-20010904/DTD/svg10.dtd">
<svg version="1.0" xmlns="http://www.w3.org/2000/svg" width="151px" height="151px" viewBox="0 0 151 151" preserveAspectRatio="xMidYMid meet">
 <g fill="#34a853">
  <path d="M66.6 149.9 c-24.7 -2.8 -47 -18.7 -58.1 -41.4 -5.6 -11.5 -7.7 -20.3 -7.7 -33 0 -12.7 2.1 -21.5 7.7 -33 9.7 -19.8 28.8 -35.1 50 -40.1 9.1 -2.1 24.9 -2.1 34 0 21.2 5 40.3 20.3 50 40.1 5.6 11.5 7.7 20.3 7.7 33 0 12.7 -2.1 21.5 -7.7 33 -11.9 24.1 -35.3 39.8 -62.5 41.8 -3.6 0.2 -9.6 0.1 -13.4 -0.4z m19.3 -5 c15.6 -2.5 28.7 -9.3 39.6 -20.4 11.5 -11.6 17.5 -24.1 19.7 -41 1.9 -14.2 -1.7 -31.3 -9.4 -44.3 -4.2 -7.3 -16.7 -19.8 -24 -24 -13 -7.7 -30.1 -11.3 -44.3 -9.4 -16.9 2.2 -29.4 8.2 -41 19.7 -28.1 27.5 -28.3 71.9 -0.6 99.6 15.9 15.9 38.5 23.3 60 19.8z"/>
  <path d="M67 138.1 c-4.4 -0.6 -4.5 -0.7 -5.2 -5.1 -0.3 -2.5 -0.7 -27.4 -0.7 -55.5 -0.1 -28 -0.5 -51.6 -1 -52.4 -2.7 -4.2 -9.8 7.5 -14.5 24 -3.5 12.1 -4.6 21.8 -4.6 39.1 l0 15 4.5 4.4 4.5 4.3 0 10.6 c0 5.8 -0.4 10.5 -0.9 10.5 -1.9 0 -16 -10.1 -19.6 -14.1 -6.1 -6.8 -11.4 -15.8 -14.2 -24.3 -3.7 -11.6 -3.7 -26.6 0 -38.2 4.6 -14 13.1 -25.2 25.4 -33.4 11 -7.3 21 -10.3 34.8 -10.3 9.2 0 12.3 0.4 19.2 2.7 19.4 6.3 34.6 21.5 41 41 3.7 11.6 3.7 26.6 0 38.2 -4.3 13.2 -12.3 24.2 -23.2 32 -6.2 4.4 -15.3 9 -16.1 8.1 -0.4 -0.4 -2.3 -27.6 -2.4 -33.8 0 -2.1 0.8 -3 4.1 -4.4 2.2 -1 5.2 -3.2 6.6 -4.9 2.6 -3.1 2.6 -3.1 2 -18.1 -0.3 -8.2 -1.1 -19.6 -1.7 -25.2 -1.1 -8.9 -1.5 -10.3 -3.1 -10.3 -1.8 0 -1.9 1.2 -1.9 21.5 0 18.4 -0.2 21.5 -1.5 21.5 -1.3 0 -1.5 -3.1 -1.5 -21.5 l0 -21.5 -3 0 -3 0 0 21.5 c0 18.4 -0.2 21.5 -1.5 21.5 -1.3 0 -1.5 -3.1 -1.5 -21.5 l0 -21.5 -2.5 0 -2.5 0 0 21.5 c0 18.4 -0.2 21.5 -1.5 21.5 -1.3 0 -1.5 -3.1 -1.5 -21.5 l0 -21.5 -2.3 0 c-2.2 0 -2.4 0.6 -3.6 9.8 -0.7 5.3 -1.5 16.7 -1.8 25.2 l-0.6 15.5 2.6 3.1 c1.4 1.7 4.4 3.9 6.7 4.9 l4.2 1.9 -0.6 9.8 c-1.9 32.1 -1.6 29.6 -4 30.2 -2.4 0.7 -7.2 0.6 -13.6 -0.3z"/>
 </g>
</svg>